<svg xmlns="http://www.w3.org/2000/svg" xmlns:xlink="http://www.w3.org/1999/xlink" width="516" height="440" viewBox="0 0 516 440">
  <defs>
    <linearGradient id="linear-gradient" x1="0.5" x2="0.5" y2="1" gradientUnits="objectBoundingBox">
      <stop offset="0" stop-color="#e5e1f6"/>
      <stop offset="1" stop-color="#7a43fc"/>
    </linearGradient>
    <linearGradient id="linear-gradient-2" x1="0.487" y1="-0.193" x2="0.294" y2="0.392" gradientUnits="objectBoundingBox">
      <stop offset="0" stop-color="#ffe5e5"/>
      <stop offset="0" stop-color="#fce2e2"/>
      <stop offset="0" stop-color="#fbe1e1"/>
      <stop offset="0.341" stop-color="#c8b7b7"/>
      <stop offset="0.511" stop-color="#beafaf"/>
      <stop offset="0.64" stop-color="#b4a7a7"/>
      <stop offset="1" stop-color="#9d8f8f"/>
    </linearGradient>
    <linearGradient id="linear-gradient-3" x1="0.5" x2="0.5" y2="1" gradientUnits="objectBoundingBox">
      <stop offset="0" stop-color="#f6ebeb"/>
      <stop offset="1" stop-color="#545454"/>
    </linearGradient>
    <linearGradient id="linear-gradient-4" x1="0.931" y1="0.116" x2="0.5" y2="1" gradientUnits="objectBoundingBox">
      <stop offset="0" stop-color="#fff"/>
      <stop offset="1" stop-color="#8670f6"/>
    </linearGradient>
    <linearGradient id="linear-gradient-22" x1="0.436" y1="0.91" x2="0.439" y2="0.197" gradientUnits="objectBoundingBox">
      <stop offset="0" stop-color="#8156e6"/>
      <stop offset="0" stop-color="#8556f3"/>
      <stop offset="0.054" stop-color="#7a44f8"/>
      <stop offset="0.293" stop-color="#7b54d9"/>
      <stop offset="1" stop-color="#ddd9f9"/>
    </linearGradient>
  </defs>
  <g id="Logo" transform="translate(-778 -348.63)">
    <rect id="Rectangle_1" data-name="Rectangle 1" width="451" height="289" rx="25" transform="translate(778 440.63)" fill="url(#linear-gradient)"/>
    <rect id="Rectangle_2" data-name="Rectangle 2" width="376" height="241" rx="25" transform="translate(815 464.63)" fill="url(#linear-gradient-2)"/>
    <ellipse id="Ellipse_1" data-name="Ellipse 1" cx="5" cy="4" rx="5" ry="4" transform="translate(999 451.63)" fill="url(#linear-gradient-3)"/>
    <rect id="Rectangle_3" data-name="Rectangle 3" width="71" height="69" transform="translate(1173 495.63)" opacity="0.85" fill="url(#linear-gradient-4)"/>
    <rect id="Rectangle_6" data-name="Rectangle 6" width="47" height="39" transform="translate(1221 373.63)" fill="url(#linear-gradient-4)"/>
    <rect id="Rectangle_8" data-name="Rectangle 8" width="57" height="56" transform="translate(1150 461.63)" opacity="0.85" fill="url(#linear-gradient-4)"/>
    <rect id="Rectangle_7" data-name="Rectangle 7" width="54" height="49" transform="translate(1115 412.63)" opacity="0.85" fill="url(#linear-gradient-4)"/>
    <rect id="Rectangle_20" data-name="Rectangle 20" width="67" height="66" transform="translate(1102 440.63)" opacity="0.85" fill="url(#linear-gradient-4)"/>
    <rect id="Rectangle_12" data-name="Rectangle 12" width="27" height="22" transform="translate(1152 395.63)" fill="url(#linear-gradient-4)"/>
    <rect id="Rectangle_13" data-name="Rectangle 13" width="24" height="23" transform="translate(1257 436.63)" fill="url(#linear-gradient-4)"/>
    <rect id="Rectangle_17" data-name="Rectangle 17" width="13" height="12" transform="translate(1270 417.63)" fill="url(#linear-gradient-4)"/>
    <rect id="Rectangle_22" data-name="Rectangle 22" width="13" height="11" transform="translate(1281 387.63)" fill="url(#linear-gradient-4)"/>
    <rect id="Rectangle_21" data-name="Rectangle 21" width="20" height="21" transform="translate(1229 382.63)" fill="url(#linear-gradient-4)"/>
    <rect id="Rectangle_15" data-name="Rectangle 15" width="17" height="14" transform="translate(1087 487.63)" opacity="0.85" fill="url(#linear-gradient-4)"/>
    <rect id="Rectangle_16" data-name="Rectangle 16" width="16" height="17" transform="translate(1233 348.63)" fill="url(#linear-gradient-4)"/>
    <rect id="Rectangle_14" data-name="Rectangle 14" width="27" height="20" transform="translate(1155 551.63)" opacity="0.85" fill="url(#linear-gradient-4)"/>
    <rect id="Rectangle_11" data-name="Rectangle 11" width="55" height="47" transform="translate(1208 412.63)" fill="url(#linear-gradient-4)"/>
    <rect id="Rectangle_4" data-name="Rectangle 4" width="62" height="60" transform="translate(1208 455.63)" fill="url(#linear-gradient-4)"/>
    <rect id="Rectangle_9" data-name="Rectangle 9" width="62" height="62" transform="translate(1229 489.63)" opacity="0.85" fill="url(#linear-gradient-4)"/>
    <rect id="Rectangle_10" data-name="Rectangle 10" width="45" height="43" transform="translate(1191 393.63)" fill="url(#linear-gradient-4)"/>
    <rect id="Rectangle_5" data-name="Rectangle 5" width="52" height="50" transform="translate(1160 423.63)" opacity="0.85" fill="url(#linear-gradient-4)"/>
    <path id="Union_1" data-name="Union 1" d="M10,45A10,10,0,0,1,0,35V21.25a10,10,0,0,1,10-10H59.031V0h79.938V11.25H188a10,10,0,0,1,10,10V35a10,10,0,0,1-10,10Z" transform="translate(909 743.63)" fill="url(#linear-gradient-22)"/>
  </g>
</svg>
